<?xml version="1.0" encoding="UTF-8"?>
<svg id="Layer_2" xmlns="http://www.w3.org/2000/svg" version="1.1" viewBox="0 0 820 316">
  <!-- Generator: Adobe Illustrator 29.8.5, SVG Export Plug-In . SVG Version: 2.1.1 Build 2)  -->
  <defs>
    <style>
      .st0, .st1, .st2 {
        fill: #fff;
      }

      .st1 {
        fill-rule: evenodd;
      }

      .st2 {
        opacity: .6;
      }

      .st3 {
        fill: #fafcfb;
      }

      .st4 {
        opacity: .9;
      }

      .st5 {
        fill: #38863a;
      }
    </style>
  </defs>
  <g>
    <path class="st1" d="M459.9,113.4c-3.1,15.2,1.6,35,12.5,37,16.1,2.7,30.3-29,47.5-29.9,4.7,22-12.9,42.1-15.8,65.1-4.7,1.1-6,5.4-11.1,5.8,3.1-15.8,5.8-36.1,11.1-49.5-12.5,9.8-38.1,30.3-51.5,8.3-3.4,11.4-5.8,28.3-8.3,40.5-3.1.7-6,1.6-9.8,1.3,1.1-23.6,6.3-51.9,8.3-72.4,4.7-2.7,10.5-7.4,17.2-5.8"/>
    <path class="st1" d="M568.4,112.5c0,3.6-3.4,4-3.4,7.8,3.1,2.4,8.2,2.7,11.1,4.7,2.4,8.3,2.4,17.6,2,26.7-.7,3.1,3.4,1.3,3.4,3.4s-2.4,2.4-4,3.4c.7,11.4-2,22.5-6,30.7-1.6.7-4.7,1.3-6,0,0-8.7.7-20.1.7-27.9-9.8.7-22.5,4-33,6.3-8.2,6.3-6,27.2-20.5,24.9-.7-7.8,4.4-15.2,7.4-21.6,0-2-4,.7-4-1.3-1.3-2,.7-5.4.7-8.3,2-1.6,4.7-3.1,8.2-3.4,8.7-8.2,9.8-24.9,20-31.9.7-3.1-3.1-1.3-2.7-4,9.8-1.3,15.8-11.4,26.3-9.1M556.6,131.7c-5.1.4-4,4.7-6.7,8.3-1.3,1.6-3.6,2.7-4,2.7-3.1,4.7-4,11.1-6.7,13.8,8.2-1.6,18.9-.7,26.3-2.7,1.6-11.1-1.6-22.9-9.1-22.3"/>
    <path class="st1" d="M354.5,116.9c1.3,3.1.7,7.8-1.3,9.8-4.7.7-8.7-1.6-13.1-2-5.4-.4-14.2,0-17.8,2-8.3,4-6.7,16.9-11.8,24.9,6-1.3,45.9-14.2,36.5,4.7-13.1.7-33.4-3.6-39.7,6.3-2.7,4.4-1.3,10.2-3.4,16.9,17.6,2,35-2,48.8-6.3,0,2.4,2.4,3.4,2.7,5.8-17.2,6.3-36.6,12.9-58.1,11.1,0-2.7-.7-4-4.7-4,.4-20.1,4.4-38.5,9.8-55,10.5-11.4,32.7-20.9,52.2-13.8"/>
    <path class="st1" d="M289,114.1c0,4-.7,8.2-2.7,10.5-8.3-.7-16.1-3.6-23.9-.7-8.2,3.1-8.3,15.2-11.8,22.9,9.8,0,27-6,37.7-.7,0,4-.4,7.1-2,9.1-11.8-2-25.6-.7-37,1.3-3.6,9.8-3.6,23.6-6,34.7-1.6,1.3-6,.7-8.2,0-1.6-11.1-1.1-22.9.7-33.4-1.3-2-5.4,1.6-6.7,0,1.3-4,4.4-6,8.2-7.8v-7.1c3.6-7.4,2.4-14.5,7.4-20.1,9.4-11.1,28.3-13.4,44.1-9.1"/>
    <path class="st1" d="M381,156.6c9.4,10.5,25.9,16.9,40.5,23.6,3.6,1.6,11.4,4.4,8.3,11.1-20.1-2.7-37.7-14.9-56.2-21.6-2,5.8-3.4,12.2-6,17.6-1.3,1.1-5.1-.4-6.7-1.3-2.4-6.3,3.4-14.2,2-19.6-1.1-4-6.3-2.7-5.4-7.1,0-4,5.8-2.7,7.4-5.8,3.4-14.5-3.6-21.2-1.3-31.4,4-16.9,43.2-6.3,53.5-1.3,8.7,4.4,13.8,14.5,4,20.9-10.7,7.1-27.9,9.4-40.5,14.5M380.5,123.9c-3.4,0-10.2,1.1-8.3,7.1,3.4.7,10.2-3.6,11.1,2.7-2.4,5.1-3.6,11.4-5.4,17.6,13.1-3.6,26.3-7.4,35-16.1-4-6.3-21.6-11.8-32.3-11.1"/>
    <path class="st1" d="M688.5,156.6c9.4,10.5,26.3,16.9,40.5,23.6,3.6,1.6,11.4,4.4,8.3,11.1-20.1-2.7-37.7-14.9-56.2-21.6-2,5.8-3.4,12.2-6,17.6-1.3,1.1-5.1-.4-6.7-1.3-2.4-6,3.1-13.4,2-18.9-1.1-4.4-5.4-3.6-5.4-7.8s5.8-2.7,7.4-5.8c3.4-14.5-3.6-21.2-1.3-31.4,4-16.9,43.2-6.3,53.5-1.3,8.7,4.4,13.8,14.5,4,20.9-10.7,7.1-27.9,9.4-40.5,14.5M687.8,123.9c-3.4,0-10.2,1.1-8.3,7.1,3.4.7,10.2-3.6,11.1,2.7-2.4,5.1-3.6,11.4-5.4,17.6,13.1-3.6,26.3-7.4,35-16.1-4-6.3-21.6-11.8-32.3-11.1"/>
    <path class="st1" d="M766.7,114.9c-3.1,23.9-15.4,44.8-11.1,72.2-3.4,1.3-6.7,5.1-11.1,3.1-8.3-12.5,5.8-37.7-2-49.2,2.7-14.2,7.8-29.4,24.7-25.9"/>
    <path class="st1" d="M622.3,153.1s-9.8,6.3-1.6,10.5c8.2-1.1,17.2-1.6,25.9-1.1-4.4,15.4-36.5,29.9-45.9,8.3-3.6-22.5,15.8-49.9,31.7-49.5,11.4,0,11.8,10.7,17.2,18.9,4.7,1.3,10.2-3.1,12.5-6.7-4.7-12.5-11.4-20.1-24.7-20.1-26.3,0-56.2,31.7-52.2,61.7.4,3.4,2,9.8,5.4,11.1,31,15.2,64-3.6,67.5-22.5,1.3-2,2-5.1,2-8.7-10.5-6.3-27.9-.7-37.7-1.3"/>
    <rect class="st0" x="229.4" y="205.7" width="3.1" height="13.8"/>
    <polygon class="st0" points="243.5 205.7 247 205.7 252.8 215.2 252.8 205.7 255.5 205.7 255.5 219.5 252.4 219.5 246.6 209.7 246.6 219.5 243.5 219.5 243.5 205.7"/>
    <polygon class="st0" points="266.5 205.7 269.8 205.7 275.6 215.2 275.6 205.7 278.3 205.7 278.3 219.5 275.3 219.5 269.6 209.7 269.6 219.5 266.5 219.5 266.5 205.7"/>
    <path class="st0" d="M300.5,218.3c-1.1,1.1-2.7,1.6-4.7,1.6s-3.6-.7-4.7-1.6c-1.3-1.3-2-3.1-2-5.8s.7-4.4,2-5.8c1.1-1.1,2.7-1.6,4.7-1.6s3.6.7,4.7,1.6c1.3,1.3,2,3.1,2,5.8s-.7,4.4-2,5.8M298.8,216.3c.7-.7,1.1-2,1.1-3.6s-.4-2.7-1.1-3.6c-.7-.7-1.6-1.3-2.7-1.3s-2,.4-2.7,1.3c-.7.7-1.1,2-1.1,3.6s.4,2.7,1.1,3.6c.7.7,1.6,1.3,2.7,1.3s2-.4,2.7-1.3"/>
    <polygon class="st0" points="322.1 205.7 325.1 205.7 320.1 219.5 317.3 219.5 312.6 205.7 315.7 205.7 318.8 216.3 322.1 205.7"/>
    <path class="st0" d="M338.6,205.7h3.4l5.1,13.8h-3.4l-1.1-2.7h-5.4l-1.1,2.7h-3.1l5.1-13.8h.5ZM338.6,214.3h3.6l-1.6-5.4-2,5.4Z"/>
    <path class="st0" d="M358.2,207.2c1.1-1.1,2.7-1.6,4.4-1.6s4,.7,5.4,2.4c.7,1.1,1.1,1.6,1.1,2.7h-3.1c0-.7-.4-1.1-.7-1.3-.7-.7-1.3-1.1-2.4-1.1s-2,.4-2.7,1.3c-.7.7-1.1,2-1.1,3.6s0,2.7,1.1,3.4c.7.7,1.3,1.1,2.4,1.1s1.6,0,2.4-1.1c0-.4.7-1.1.7-1.6h3.1c0,1.3-1.1,2.7-2,3.6s-2.4,1.3-4,1.3-3.6-.7-4.7-2c-1.1-1.3-1.6-3.1-1.6-5.1s.7-4.4,2-5.4"/>
    <rect class="st0" x="379.4" y="205.7" width="3.1" height="13.8"/>
    <path class="st0" d="M404.6,218.3c-1.1,1.1-2.7,1.6-4.7,1.6s-3.6-.7-4.7-1.6c-1.3-1.3-2-3.1-2-5.8s.7-4.4,2-5.8c1.1-1.1,2.7-1.6,4.7-1.6s3.6.7,4.7,1.6c1.3,1.3,2,3.1,2,5.8s-.7,4.4-2,5.8M403,216.3c.7-.7,1.1-2,1.1-3.6s-.4-2.7-1.1-3.6c-.7-.7-1.6-1.3-2.7-1.3s-2,.4-2.7,1.3c-.7.7-1.1,2-1.1,3.6s.4,2.7,1.1,3.6c.7.7,1.6,1.3,2.7,1.3s2-.4,2.7-1.3M403.3,201.4l-3.1,2.7h-2l2-2.7h3.1Z"/>
    <polygon class="st0" points="417.8 205.7 420.9 205.7 426.6 215.2 426.6 205.7 429.3 205.7 429.3 219.5 426.2 219.5 420.6 209.7 420.6 219.5 417.8 219.5 417.8 205.7"/>
    <polygon class="st0" points="465.4 208.1 457.6 208.1 457.6 211.2 464.7 211.2 464.7 213.5 457.6 213.5 457.6 217 465.7 217 465.7 219.5 454.9 219.5 454.9 205.7 465.4 205.7 465.4 208.1"/>
    <polygon class="st0" points="476.4 205.7 479.5 205.7 485.2 215.2 485.2 205.7 487.9 205.7 487.9 219.5 485.2 219.5 479.2 209.7 479.2 219.5 476.4 219.5 476.4 205.7"/>
    <polygon class="st0" points="513.3 205.7 523.6 205.7 523.6 208.1 516.2 208.1 516.2 211.6 522.7 211.6 522.7 213.9 516.2 213.9 516.2 219.5 513.3 219.5 513.3 205.7"/>
    <polygon class="st0" points="544.5 208.1 537 208.1 537 211.2 544.1 211.2 544.1 213.5 537 213.5 537 217 544.8 217 544.8 219.5 534.1 219.5 534.1 205.7 544.5 205.7 544.5 208.1"/>
    <path class="st0" d="M565.2,206.1c.7,0,1.1.7,1.3,1.1,0,.4.7.7.7,1.1v1.3c0,.4,0,1.3-.7,2-.4.7-1.1,1.1-1.6,1.3.7,0,1.1.7,1.3,1.1,0,.4.4,1.3.4,2v2.4c0,.4,0,.7.7.7h0c0,.4-3.4.4-3.4.4v-3.1c0-1.1,0-1.3-.4-1.6,0,0-1.1-.4-1.6-.4h-3.1v5.4h-3.1v-13.8h6.7c1.1,0,1.6,0,2.4.4M558.6,208.1v3.6h4.7c.7,0,1.1-.7,1.1-1.6s0-1.3-.7-1.6h-4.7l-.4-.4h0Z"/>
    <polygon class="st0" points="589.1 205.7 589.1 208.1 584.9 208.1 584.9 219.5 582 219.5 582 208.1 577.5 208.1 577.5 205.7 589.1 205.7"/>
    <rect class="st0" x="599.1" y="205.7" width="3.1" height="13.8"/>
    <polygon class="st0" points="613.2 205.7 616.3 205.7 616.3 217 623.8 217 623.8 219.5 613.2 219.5 613.2 205.7"/>
    <rect class="st0" x="633.5" y="205.7" width="3.1" height="13.8"/>
    <polygon class="st0" points="646.6 217 654 208.1 647 208.1 647 205.7 657.9 205.7 657.9 208.1 650.4 217 657.9 217 657.9 219.5 646.6 219.5 646.6 217"/>
    <path class="st0" d="M672,205.7h3.4l5.1,13.8h-3.4l-1.1-2.7h-5.4l-1.1,2.7h-3.1l5.1-13.8h.5ZM671.6,214.3h3.6l-1.6-5.4-2,5.4Z"/>
    <polygon class="st0" points="689.8 205.7 692.9 205.7 698.5 215.2 698.5 205.7 701.6 205.7 701.6 219.5 698.5 219.5 692.5 209.7 692.5 219.5 689.8 219.5 689.8 205.7"/>
    <polygon class="st0" points="723.2 205.7 723.2 208.1 718.8 208.1 718.8 219.5 715.7 219.5 715.7 208.1 711.7 208.1 711.7 205.7 723.2 205.7"/>
    <polygon class="st0" points="744 208.1 736.6 208.1 736.6 211.2 743.3 211.2 743.3 213.5 736.6 213.5 736.6 217 744.4 217 744.4 219.5 733.5 219.5 733.5 205.7 744 205.7 744 208.1"/>
    <path class="st0" d="M757.5,215.2c0,.7,0,1.1.7,1.3.4.7,1.3,1.1,2.7,1.1h1.6c1.1,0,1.3-.7,1.3-1.6s0-.7-.7-1.1c-.4,0-1.1-.4-2-.7h-1.6c-1.6-.7-2.7-1.1-3.1-1.3-1.1-.7-1.3-1.6-1.3-3.1s.4-2.4,1.3-3.1c1.1-.7,2.4-1.3,4-1.3s2.7.4,4,1.1c1.1.7,1.6,2,1.6,3.4h-3.1c0-.7-.4-1.3-1.1-1.6-.4,0-1.1-.4-1.6-.4s-1.3,0-2,.4c-.4,0-.7.7-.7,1.3s0,1.1.7,1.1c0,0,1.1.4,2,.7l2.7.7c1.1,0,2,.7,2.4,1.1,1.1.7,1.3,1.6,1.3,2.7s-.7,2.4-1.6,3.1-2.4,1.3-4.4,1.3-3.4-.4-4.4-1.3c-1.1-.7-1.6-2-1.6-3.4h3.1-.4l.2-.4Z"/>
  </g>
  <g>
    <g class="st4">
      <g>
        <path class="st2" d="M127.6,241.1h-.1c-21.5-2.1-34.4-11.7-41.5-19.3-7.4-7.8-9.9-15.3-10.3-16.2l-1-2.1c-4.6-10.3-9.2-19.7-7.6-29.3,6.2-39.7,34.5-61.1,64.5-83.8,3.9-2.9,7.8-6,11.8-8.9,14.2-11,25.5-30.2,25.5-30.4.3-.4,1-.8,1.4-.8h.4c.8.3,1.2,1,1.1,1.8-3.6,37.7,0,48.8,2.9,57.6.7,1.9,1.2,3.6,1.8,5.7,1.2,5.3,5.7,18.2,10.3,30.7,5.1,14.6,9.9,28.4,10.7,32.9,1.8,8.7-1.1,20.5-1.2,21.1h0c-.4,1.4-10.7,35.5-39.7,38.2h-3.6c-26.1,0-29.3-26.1-29.3-26.5-2.5-21.5,6.7-41.1,26.6-56.5,6-4.4,11.8-7.9,17.1-10.7-31.6,8.6-43,32.2-47,46.8-.3,1.2-.7,2.4-2.1,2.4s-1.1-.3-1.4-.7c-13-16.8-25.7-20.3-34-20.3s-6.4.7-8.6,1.2c19.7,5.3,30.1,14.7,35.4,21.8,6.4,8.6,7.2,16.1,7.2,16.4h0c.7,15.7,11.7,25.7,11.8,25.8.4.4.8,1.2.4,1.9s-1,1-1.5,1"/>
        <path class="st3" d="M170.6,51.5h0M170.6,51.5c-4.3,46.1,1.8,52.6,4.6,63.8,2.9,11.1,19.3,54.8,21,63.4,1.5,8.6-1.2,20.3-1.2,20.3,0,0-10,34.4-38.2,36.8h-3.5c-25,0-27.6-24.8-27.6-24.8-6.2-51.3,56.6-71.3,56.6-71.3-55.8,5.6-63.1,51.8-63.8,51.8s0,0,0,0c-13.2-16.9-25.9-21-35.2-21s-14.2,3.5-14.2,3.5c7.1-44.1,42.6-66,75.8-91.7,14.7-11.4,25.9-31.1,25.9-31.1M68.9,174.3h0M68.9,174.3c43.7,9.3,46.3,38.2,46.3,38.2.8,16.7,12.2,27.1,12.2,27.1-40.5-4-50.2-34.4-50.2-34.4-5-10.7-10-21-8.5-30.7M170.6,48.2h-.3c-.7,0-1.1.3-1.5.7-.3.1-.4.4-.8.8,0,0-.1.3-.3.4-.7,1-11.5,19.4-25.3,30-3.9,3.1-7.8,6.1-11.8,8.9-14.3,11-29.3,22.2-41.1,35.5-13.5,15-21.2,31.2-24.1,49.4h0c-1.5,10,3.1,20,7.8,30.2.3.7.7,1.4,1,2.1.4,1.4,3.3,8.9,10.7,16.9,7.2,7.8,20.5,17.8,42.6,19.7h.3c1.4,0,2.5-.8,3.2-2.1.7-1.4.3-3.1-.8-4,0,0-10.5-9.9-11.1-24.7h0c0-.4-.8-8.5-7.5-17.3-4.7-6.5-13.7-14.8-29.3-20.4h1.1c11.4,0,22.6,6.7,32.5,19.6.7.8,1.5,1.2,2.8,1.2s2.8-.1,3.5-2.8c0-.1,0-.4.3-1,2.9-10.3,9.4-25,24.6-35.7-18.5,15.3-26.9,34.4-24.4,55.6,0,.7,1,7.2,5,13.9,4,6.4,11.7,14.2,26.1,14.2s2.4,0,3.6-.1c12.6-1.1,23.7-8.3,32.2-21,6.2-9.3,8.9-18.2,8.9-18.5h0c0-.4,3.1-12.6,1.2-21.6-1-4.7-5.7-18.5-10.8-33.2-4.3-12.5-8.7-25.4-10-30.4-.4-2.1-1.1-3.9-1.8-5.7-2.9-8.6-6.2-19.3-2.8-56.7v-.4c0-1.8-1.4-3.3-3.2-3.5h-.3M170.6,55h0ZM68.9,177.8h0ZM68.9,177.8h0Z"/>
      </g>
    </g>
    <g class="st4">
      <g>
        <path class="st0" d="M149.9,200.8c-14.7,0-24.6-2.4-24.7-2.4-.3,0-.7-.4-.4-.8,3.1-22.5,18.3-37.2,30.8-45.5,7.4-5,14.7-8.5,19.6-10.4-22.8,4.4-36.5,16.9-44.1,26.8-9.2,11.9-11.9,23.2-11.9,23.3,0,.3-.3.4-.7.4s0,0,0,0c-.3,0-.7-.3-.7-.7-5.6-34.8,21.8-60.2,22.2-60.6,9.6-8.2,23.2-12.1,40.4-12.1s36.1,5.3,36.2,5.3c.3,0,.4.4.4.8-3.6,30.8-11.8,51.5-24.7,63.3-10.8,9.9-22.8,11.5-33.3,12.1-2.9.1-6,.3-8.7.3"/>
        <path class="st5" d="M180,119.8c19.1,0,36.1,5.3,36.1,5.3-8.5,69.2-38,73.5-57.4,74.8-3.1.1-6.1.3-8.7.3-14.7,0-24.6-2.4-24.6-2.4,5.7-42.9,56.6-57.9,56.6-57.9-52.7,6.2-63.8,51.8-63.8,51.8-5.6-34.8,22.1-59.9,22.1-59.9,10.8-9.3,25.9-11.9,39.8-11.9M180,118.6c-17.3,0-31.1,4.2-40.7,12.2h0c-.3.3-7.2,6.5-13.5,17.2-5.7,9.9-11.9,25.5-9.2,43.8,0,.7.7,1.1,1.2,1.1h0c.7,0,1.1-.4,1.2-1.1,0,0,2.9-11.4,11.9-23.2,6.7-8.7,18.2-19.1,36.2-24.6-3.9,1.9-8.2,4.3-12.6,7.4-7.9,5.4-14.6,11.5-19.6,18.2-6.4,8.5-10.3,17.8-11.5,27.8,0,.7.3,1.4,1.1,1.5.4,0,10.3,2.4,24.8,2.4s6,0,8.9-.3c7.6-.4,21.6-1.4,33.6-12.2,13-11.9,21.2-32.7,25-63.8,0-.7-.3-1.2-1-1.4-.1,0-14.4-4.9-33.7-4.9"/>
      </g>
    </g>
    <g class="st4">
      <g>
        <path class="st0" d="M95.7,211.1c-5.7,0-11.9-1.9-18.6-5.6-17.1-9.4-31.1-41.5-31.6-42.9v-.4c0-.1.1-.3.4-.3,0,0,16.2-5.3,45.8-5.3s1.9,0,2.9,0c8.9,0,15.7,2.9,20,8.3,8.3,10.4,4.7,26.5,4.6,27.1,0,.3-.3.4-.4.4h-.1c-.1,0-.3,0-.4-.3-16.7-19.6-30-20-36.5-20.1h-1.4c-3.3,0-6.5,1.1-8.6,1.9,30.1,5.1,40.7,26.5,41.8,28.9v.4c-.7,1.9-7.1,5.1-9.2,6-.3.1-3.2,1.8-8.3,1.8"/>
        <path class="st5" d="M93.2,157h1.3c31.6.4,23.9,34.7,23.9,34.7-17.8-21.1-32.1-20.1-38-20.3h-.4c-5.7,0-10.8,2.9-10.8,2.9,29.1,4,40.9,23.4,43.6,28.9-.4,1.8-8.7,5.6-8.7,5.6,0,0-2.8,1.5-7.9,1.5s-10.5-1.1-18.3-5.4c-17.1-9.4-31.2-42.6-31.2-42.6,0,0,15.8-5.3,45.5-5.3M91.5,155.6h0c-29.6,0-45.2,5.1-45.9,5.4-.3,0-.7.3-.8.8,0,.3-.1.8,0,1.1.7,1.4,14.7,33.6,31.9,43.2,6.7,3.6,13,5.6,19,5.6s7.9-1.4,8.6-1.8c4-1.8,8.9-4.4,9.4-6.4v-1c-1.1-2.4-11.1-22.9-39.8-28.9,1.8-.4,3.9-1,6-1s.3,0,.4,0h1c6.4,0,19.6.3,36.1,19.7.3.3.7.4,1.1.4s.1,0,.3,0c.4,0,1-.4,1-1.1s3.6-17.1-4.7-27.8c-4.4-5.6-11.4-8.5-20-8.3h-2.9"/>
      </g>
    </g>
  </g>
</svg>