<?xml version="1.0" encoding="UTF-8"?>
<svg id="Layer_2" data-name="Layer 2" xmlns="http://www.w3.org/2000/svg" viewBox="0 0 717.24 178.77">
  <defs>
    <style>
      .cls-1, .cls-2 {
        fill: #fff;
      }

      .cls-3 {
        opacity: .78;
      }

      .cls-2 {
        fill-rule: evenodd;
      }
    </style>
  </defs>
  <g id="Capa_2" data-name="Capa 2">
    <g>
      <g>
        <path class="cls-2" d="M416.93,52.86c-3.05,14.81,1.61,34.18,12.3,36.01,15.91,2.73,29.68-28.2,46.59-29.22,4.5,21.4-12.59,41.17-15.53,63.29-4.48.96-5.83,5.21-11,5.44,2.84-15.58,5.75-35.28,11-48.35-12.23,9.38-37.28,29.54-50.47,8.15-3.4,11.16-5.58,27.55-8.41,39.31-3.08.62-5.87,1.54-9.71,1.36,1-23.08,6.35-50.64,8.41-70.56,4.51-2.57,10.38-7.13,16.82-5.43Z"/>
        <path class="cls-2" d="M523.28,51.69c-.09,3.53-3.16,3.92-3.23,7.48,2.84,2.45,7.87,2.6,11,4.75,2.2,8.18,2.46,17.12,1.94,25.82-.63,2.92,3.18,1.19,3.23,3.4.15,2.65-2.4,2.46-3.88,3.4.63,11.33-1.99,22.04-5.82,29.9-1.53.52-4.48,1.34-5.83,0-.31-8.39.69-19.62.65-27.18-9.42.78-22.23,3.81-32.35,6.11-7.96,6.38-6.01,26.74-20.06,24.47-.57-7.55,4.3-14.85,7.12-21.07.11-1.92-3.99.57-3.88-1.36-1.17-1.89.63-5.37.65-8.15,1.95-1.8,4.51-2.96,7.76-3.4,8.73-8.04,9.49-24.47,19.42-31.26.51-2.8-3.1-1.28-2.59-4.08,9.43-1.36,15.49-11.02,25.88-8.83ZM511.63,70.72c-5,.35-3.93,4.7-6.47,8.15-1.17,1.59-3.77,2.55-3.88,2.72-2.96,4.65-3.88,10.71-6.47,13.59,7.97-1.6,18.37-.64,25.88-2.72,1.71-10.7-1.68-22.27-9.06-21.74Z"/>
        <path class="cls-2" d="M313.63,56.01c1.33,3.1.51,7.68-1.3,9.51-4.58.67-8.62-1.73-12.94-2.04-5.39-.38-13.77.27-17.47,2.04-8.17,3.91-6.44,16.54-11.65,24.46,6.09-1.45,44.98-13.85,35.59,4.76-12.74.61-32.78-3.54-38.82,6.12-2.68,4.28-1.31,9.71-3.23,16.31,17.18,1.96,34.24-2.1,47.88-6.12.29,2.41,2.18,3.14,2.59,5.44-16.92,6.24-36.1,12.63-56.94,10.87-.04-2.78-.63-4.07-4.53-4.08.34-19.71,4.3-37.51,9.7-53.68,10.08-11.17,32.15-20.31,51.12-13.59Z"/>
        <path class="cls-2" d="M249.32,53.63c-.19,4.1-.77,7.79-2.58,10.19-8.27-.74-15.83-3.56-23.3-.68-7.94,3.06-8.18,14.75-11.65,22.42,9.57.11,26.34-5.97,36.88-.68.19,3.82-.39,6.84-1.94,8.83-11.61-2.03-25-.67-36.24,1.36-3.6,9.58-3.62,22.92-5.83,33.97-1.71,1.3-5.94.71-7.76,0-1.59-10.71-1.09-22.29.64-32.61-1.3-1.87-5.3,1.61-6.47,0,1.21-3.94,4.43-5.77,7.76-7.47,0-2.27,0-4.53,0-6.79,3.52-7.16,2.45-14.19,7.12-19.7,9.19-10.86,27.66-13.19,43.35-8.83Z"/>
        <path class="cls-2" d="M339.51,94.82c9.21,10.1,25.59,16.55,39.48,23.1,3.66,1.73,11.18,4.2,8.41,10.87-19.96-2.6-36.84-14.31-55-21.06-2.07,5.53-3.29,11.95-5.82,16.99-1.33.9-4.96-.33-6.47-1.36-2.44-6.13,3.33-13.8,1.94-19.03-1.07-3.99-6.28-2.5-5.18-6.8.25-4.04,5.55-2.78,7.12-5.43,3.16-14.07-3.65-20.57-1.29-30.58,3.85-16.36,42.34-6.22,52.41-1.36,8.61,4.15,13.62,14.12,3.88,20.38-10.72,6.9-27.47,9.17-39.48,14.27ZM338.86,62.89c-3.23.19-9.93.87-8.41,6.79,3.2.62,9.91-3.7,11,2.72-2.37,4.99-3.55,11.22-5.18,16.99,12.83-3.75,25.91-7.22,34.3-15.63-4-6.4-21.12-11.49-31.71-10.87Z"/>
        <path class="cls-2" d="M640.75,94.82c9.2,10.1,25.6,16.55,39.49,23.1,3.67,1.73,11.19,4.2,8.42,10.87-19.97-2.6-36.86-14.31-55.02-21.06-1.91,5.7-3.39,11.84-5.83,16.99-1.33.89-4.96-.33-6.47-1.36-2.36-5.9,3.02-13.01,1.94-18.35-.87-4.31-5.43-3.49-5.18-7.48.25-4.04,5.55-2.78,7.12-5.43,3.15-14.07-3.66-20.57-1.3-30.58,3.85-16.34,42.36-6.25,52.43-1.36,8.59,4.17,13.64,14.11,3.88,20.38-10.72,6.9-27.49,9.17-39.49,14.27ZM640.1,62.89c-3.24.19-9.93.87-8.42,6.79,3.2.62,9.91-3.7,11.01,2.72-2.37,4.99-3.55,11.22-5.18,16.99,12.83-3.75,25.92-7.22,34.31-15.63-4-6.4-21.13-11.49-31.72-10.87Z"/>
        <path class="cls-2" d="M717.24,54c-3.05,23.41-15.21,43.63-11,70.33-3.16,1.4-6.53,5.02-11,2.81-8.12-12.17,5.58-36.76-1.94-47.82,2.76-13.66,7.75-28.59,23.94-25.32Z"/>
        <path class="cls-2" d="M576.1,91.47s-9.44,6.27-1.76,10.17c7.93-1.07,16.88-1.72,25.49-1.04-4.36,15.1-35.67,29.21-44.92,8.31-3.78-22.1,15.6-48.72,31.06-48.38,11.1.24,11.6,10.57,16.82,18.33,4.59,1.29,9.85-3.01,12.3-6.6-4.55-12.27-11.33-19.67-23.94-19.8-25.67-.25-55.27,31.05-51.12,60.11.44,3.12,2.06,9.49,5.18,11,30.27,14.65,62.88-3.58,65.9-22.02,1.29-2.05,1.86-5,1.86-8.68-10.27-6.31-27.32-.74-36.87-1.42Z"/>
      </g>
      <g>
        <g class="cls-3">
          <path class="cls-1" d="M119.1,0s-10.89,18.69-24.89,29.54C62.6,54.01,28.53,74.72,21.82,116.83c-1.48,9.27,3.43,18.92,8.14,29.14,0,0,9.32,29.06,48.08,32.81,0,0-11.05-9.99-11.75-25.74,0,0-2.65-27.43-44.46-36.2,0,0,23.06-14.23,47.28,16.58.45.7,7.21-44.01,61.02-49.29,0,0-60.04,18.97-54.15,67.77,0,0,2.77,25.88,29.73,23.59,26.96-2.29,36.51-35.03,36.51-35.03,0,0,2.76-11.16,1.19-19.3-1.57-8.14-17.29-49.75-19.96-60.39-2.67-10.64-8.54-16.84-4.35-60.76Z"/>
        </g>
        <path class="cls-1" d="M69.1,133.4s10.59-43.35,61.02-49.29c0,0-48.72,14.16-54.2,55.04,0,0,13.26,3.12,31.84,1.95,18.58-1.17,46.88-5.38,54.92-71.18,0,0-47.64-14.69-72.57,6.48,0,0-26.37,23.9-21.01,57.01Z"/>
        <path class="cls-1" d="M69.1,133.4s7.26-32.63-22.87-32.96c-30.13-.34-46.23,5.01-46.23,5.01,0,0,13.68,31.55,29.96,40.51,16.28,8.96,25.11,3.62,25.11,3.62,0,0,7.86-3.56,8.38-5.29-2.35-5.15-13.74-23.68-41.62-27.47,0,0,5.19-2.93,10.91-2.76,5.71.17,19.41-.66,36.37,19.34Z"/>
      </g>
      <g>
        <path class="cls-1" d="M194.56,156.7h-2.92v-13.37h2.92v13.37Z"/>
        <path class="cls-1" d="M205.52,143.33h3.09s5.59,9.33,5.59,9.33v-9.33h2.75v13.37h-2.95s-5.73-9.49-5.73-9.49v9.49h-2.75v-13.37Z"/>
        <path class="cls-1" d="M227.92,143.33h3.08s5.59,9.33,5.59,9.33v-9.33h2.75v13.37h-2.95s-5.73-9.49-5.73-9.49v9.49h-2.74v-13.37Z"/>
        <path class="cls-1" d="M261.21,155.52c-1.06,1.04-2.6,1.56-4.62,1.56-2.01,0-3.55-.52-4.61-1.56-1.43-1.28-2.14-3.12-2.14-5.52,0-2.45.71-4.29,2.14-5.52,1.06-1.04,2.6-1.56,4.61-1.56,2.01,0,3.55.52,4.62,1.56,1.42,1.23,2.13,3.07,2.13,5.52,0,2.4-.71,4.24-2.13,5.52ZM259.37,153.48c.69-.82,1.03-1.98,1.03-3.49,0-1.5-.34-2.66-1.03-3.48-.68-.82-1.61-1.23-2.78-1.23-1.16,0-2.1.41-2.79,1.22-.69.82-1.04,1.98-1.04,3.48,0,1.51.35,2.67,1.04,3.49.69.82,1.63,1.22,2.79,1.22,1.17,0,2.09-.41,2.78-1.22Z"/>
        <path class="cls-1" d="M282.09,143.33h3.06s-4.8,13.37-4.8,13.37h-2.78s-4.76-13.37-4.76-13.37h3.14s3.06,10.15,3.06,10.15l3.09-10.15Z"/>
        <path class="cls-1" d="M298.47,143.33h3.33s4.98,13.37,4.98,13.37h-3.19s-.93-2.75-.93-2.75h-5.19s-.96,2.75-.96,2.75h-3.08s5.03-13.37,5.03-13.37ZM298.27,151.65h3.61s-1.78-5.26-1.78-5.26l-1.83,5.26Z"/>
        <path class="cls-1" d="M317.46,144.73c1.13-1.1,2.58-1.65,4.33-1.65,2.34,0,4.06.74,5.14,2.22.6.83.92,1.66.96,2.5h-2.94c-.19-.64-.43-1.12-.72-1.45-.52-.58-1.3-.87-2.33-.87-1.05,0-1.87.41-2.48,1.23-.6.82-.91,1.98-.91,3.48,0,1.5.32,2.62.96,3.37.64.75,1.45,1.12,2.43,1.12,1.01,0,1.78-.32,2.31-.96.29-.35.53-.86.73-1.55h2.92c-.25,1.46-.9,2.64-1.93,3.55-1.04.91-2.37,1.37-3.99,1.37-2,0-3.58-.62-4.73-1.85-1.15-1.24-1.72-2.94-1.72-5.1,0-2.34.65-4.14,1.96-5.4Z"/>
        <path class="cls-1" d="M341.19,156.7h-2.92v-13.37h2.92v13.37Z"/>
        <path class="cls-1" d="M363.05,155.52c-1.06,1.04-2.6,1.56-4.62,1.56-2.01,0-3.55-.52-4.62-1.56-1.42-1.28-2.14-3.12-2.14-5.52,0-2.45.72-4.29,2.14-5.52,1.06-1.04,2.6-1.56,4.62-1.56,2.01,0,3.55.52,4.62,1.56,1.42,1.23,2.13,3.07,2.13,5.52,0,2.4-.71,4.24-2.13,5.52ZM361.21,153.48c.69-.82,1.03-1.98,1.03-3.49,0-1.5-.34-2.66-1.03-3.48-.68-.82-1.61-1.23-2.78-1.23-1.17,0-2.09.41-2.79,1.22-.69.82-1.04,1.98-1.04,3.48,0,1.51.35,2.67,1.04,3.49.7.82,1.62,1.22,2.79,1.22,1.17,0,2.09-.41,2.78-1.22ZM361.69,139.14l-2.9,2.71h-1.97s1.83-2.71,1.83-2.71h3.04Z"/>
        <path class="cls-1" d="M375.64,143.33h3.08s5.59,9.33,5.59,9.33v-9.33h2.74v13.37h-2.94s-5.74-9.49-5.74-9.49v9.49h-2.74v-13.37Z"/>
        <path class="cls-1" d="M422.19,145.7h-7.46s0,2.84,0,2.84h6.85v2.32h-6.85s0,3.44,0,3.44h7.8v2.4h-10.68v-13.37h10.33v2.37Z"/>
        <path class="cls-1" d="M433.04,143.33h3.09s5.59,9.33,5.59,9.33v-9.33h2.74v13.37h-2.94s-5.74-9.49-5.74-9.49v9.49h-2.74v-13.37Z"/>
        <path class="cls-1" d="M469.17,143.35h10.04v2.35h-7.12s0,3.08,0,3.08h6.24v2.32h-6.24s0,5.61,0,5.61h-2.93v-13.36Z"/>
        <path class="cls-1" d="M499.81,145.7h-7.46s0,2.84,0,2.84h6.85v2.32h-6.85s0,3.44,0,3.44h7.8v2.4h-10.68v-13.37h10.33v2.37Z"/>
        <path class="cls-1" d="M519.73,143.67c.52.21.96.52,1.32.94.3.34.53.71.71,1.12.17.41.26.88.26,1.41,0,.64-.17,1.26-.5,1.87-.34.61-.9,1.05-1.68,1.3.65.25,1.11.6,1.38,1.05.27.46.4,1.15.4,2.09v.9c0,.61.03,1.03.08,1.24.08.35.26.6.54.77v.33h-3.25c-.09-.3-.15-.54-.19-.72-.08-.37-.12-.76-.13-1.15l-.02-1.24c0-.85-.17-1.42-.46-1.71-.3-.29-.86-.43-1.68-.43h-2.87s0,5.24,0,5.24h-2.88v-13.37h6.74c.96.02,1.7.13,2.22.34ZM513.65,145.65v3.59s3.17,0,3.17,0c.63,0,1.1-.07,1.42-.22.56-.25.83-.75.83-1.51,0-.81-.27-1.35-.81-1.63-.3-.15-.76-.23-1.36-.23h-3.25Z"/>
        <path class="cls-1" d="M543.33,143.33v2.37h-4.21s0,11.01,0,11.01h-2.96v-11.01s-4.23,0-4.23,0v-2.37h11.41Z"/>
        <path class="cls-1" d="M555.99,156.7h-2.92v-13.37h2.92v13.37Z"/>
        <path class="cls-1" d="M567,143.33h2.95v10.97s7.04,0,7.04,0v2.4h-9.98v-13.37Z"/>
        <path class="cls-1" d="M589.56,156.7h-2.92v-13.37h2.92v13.37Z"/>
        <path class="cls-1" d="M599.58,154.34l7.2-8.65h-7.02v-2.37h10.68v2.24s-7.29,8.77-7.29,8.77h7.31v2.36h-10.88v-2.36Z"/>
        <path class="cls-1" d="M624.1,143.33h3.33s4.99,13.37,4.99,13.37h-3.19s-.93-2.75-.93-2.75h-5.19s-.96,2.75-.96,2.75h-3.08s5.03-13.37,5.03-13.37ZM623.9,151.65h3.61s-1.78-5.26-1.78-5.26l-1.83,5.26Z"/>
        <path class="cls-1" d="M641.7,143.33h3.09s5.59,9.33,5.59,9.33v-9.33h2.75v13.37h-2.95s-5.74-9.49-5.74-9.49v9.49h-2.74v-13.37Z"/>
        <path class="cls-1" d="M674.4,143.33v2.37h-4.22s0,11.01,0,11.01h-2.96v-11.01s-4.24,0-4.24,0v-2.37h11.42Z"/>
        <path class="cls-1" d="M694.8,145.7h-7.46s0,2.84,0,2.84h6.85v2.32h-6.85s0,3.44,0,3.44h7.8v2.4h-10.68v-13.37h10.33v2.37Z"/>
        <path class="cls-1" d="M707.82,152.57c.09.61.27,1.07.54,1.37.49.55,1.32.82,2.51.82.71,0,1.29-.07,1.73-.22.84-.28,1.26-.79,1.26-1.55,0-.44-.21-.78-.62-1.02-.41-.23-1.06-.45-1.95-.63l-1.53-.32c-1.5-.32-2.53-.65-3.09-1.02-.95-.62-1.42-1.58-1.42-2.9,0-1.19.47-2.19,1.4-2.98.93-.79,2.29-1.19,4.09-1.19,1.5,0,2.78.37,3.84,1.12,1.06.75,1.62,1.83,1.67,3.25h-2.83c-.05-.8-.43-1.38-1.14-1.71-.47-.22-1.06-.34-1.76-.34-.78,0-1.4.15-1.86.44-.47.29-.7.7-.7,1.22,0,.48.23.83.68,1.07.29.16.92.34,1.87.55l2.47.55c1.08.24,1.9.56,2.44.97.84.63,1.26,1.54,1.26,2.73,0,1.23-.5,2.24-1.49,3.05-.99.8-2.4,1.21-4.22,1.21-1.85,0-3.31-.4-4.37-1.19-1.07-.8-1.59-1.89-1.59-3.28h2.81Z"/>
      </g>
    </g>
  </g>
</svg>