<?xml version="1.0" encoding="UTF-8"?>
<svg id="Layer_2" data-name="Layer 2" xmlns="http://www.w3.org/2000/svg" viewBox="0 0 721.8 187.91">
  <defs>
    <style>
      .cls-1 {
        fill: #fff;
      }

      .cls-2, .cls-3 {
        fill: #006937;
      }

      .cls-3 {
        fill-rule: evenodd;
      }

      .cls-4 {
        fill: #80bc00;
      }

      .cls-5 {
        fill: #cddb00;
      }
    </style>
  </defs>
  <g id="Capa_2" data-name="Capa 2">
    <g>
      <g>
        <path class="cls-3" d="M421.5,57.43c-3.05,14.81,1.61,34.18,12.3,36.01,15.91,2.73,29.68-28.2,46.59-29.22,4.5,21.4-12.59,41.17-15.53,63.29-4.48.96-5.83,5.21-11,5.44,2.84-15.58,5.75-35.28,11-48.35-12.23,9.38-37.28,29.54-50.47,8.15-3.4,11.16-5.58,27.55-8.41,39.31-3.08.62-5.87,1.54-9.71,1.36,1-23.08,6.35-50.64,8.41-70.56,4.51-2.57,10.38-7.13,16.82-5.43Z"/>
        <path class="cls-3" d="M527.84,56.26c-.09,3.53-3.16,3.92-3.23,7.48,2.84,2.45,7.87,2.6,11,4.75,2.2,8.18,2.46,17.12,1.94,25.82-.63,2.92,3.18,1.19,3.23,3.4.15,2.65-2.4,2.46-3.88,3.4.63,11.33-1.99,22.04-5.82,29.9-1.53.52-4.48,1.34-5.83,0-.31-8.39.69-19.62.65-27.18-9.42.78-22.23,3.81-32.35,6.11-7.96,6.38-6.01,26.74-20.06,24.47-.57-7.55,4.3-14.85,7.12-21.07.11-1.92-3.99.57-3.88-1.36-1.17-1.89.63-5.37.65-8.15,1.95-1.8,4.51-2.96,7.76-3.4,8.73-8.04,9.49-24.47,19.42-31.26.51-2.8-3.1-1.28-2.59-4.08,9.43-1.36,15.49-11.02,25.88-8.83ZM516.2,75.28c-5,.35-3.93,4.7-6.47,8.15-1.17,1.59-3.77,2.55-3.88,2.72-2.96,4.65-3.88,10.71-6.47,13.59,7.97-1.6,18.37-.64,25.88-2.72,1.71-10.7-1.68-22.27-9.06-21.74Z"/>
        <path class="cls-3" d="M318.2,60.58c1.33,3.1.51,7.68-1.3,9.51-4.58.67-8.62-1.73-12.94-2.04-5.39-.38-13.77.27-17.47,2.04-8.17,3.91-6.44,16.54-11.65,24.46,6.09-1.45,44.98-13.85,35.59,4.76-12.74.61-32.78-3.54-38.82,6.12-2.68,4.28-1.31,9.71-3.23,16.31,17.18,1.96,34.24-2.1,47.88-6.12.29,2.41,2.18,3.14,2.59,5.44-16.92,6.24-36.1,12.63-56.94,10.87-.04-2.78-.63-4.07-4.53-4.08.34-19.71,4.3-37.51,9.7-53.68,10.08-11.17,32.15-20.31,51.12-13.59Z"/>
        <path class="cls-3" d="M253.89,58.2c-.19,4.1-.77,7.79-2.58,10.19-8.27-.74-15.83-3.56-23.3-.68-7.94,3.06-8.18,14.75-11.65,22.42,9.57.11,26.34-5.97,36.88-.68.19,3.82-.39,6.84-1.94,8.83-11.61-2.03-25-.67-36.24,1.36-3.6,9.58-3.62,22.92-5.83,33.97-1.71,1.3-5.94.71-7.76,0-1.59-10.71-1.09-22.29.64-32.61-1.3-1.87-5.3,1.61-6.47,0,1.21-3.94,4.43-5.77,7.76-7.47,0-2.27,0-4.53,0-6.79,3.52-7.16,2.45-14.19,7.12-19.7,9.19-10.86,27.66-13.19,43.35-8.83Z"/>
        <path class="cls-3" d="M344.08,99.39c9.21,10.1,25.59,16.55,39.48,23.1,3.66,1.73,11.18,4.2,8.41,10.87-19.96-2.6-36.84-14.31-55-21.06-2.07,5.53-3.29,11.95-5.82,16.99-1.33.9-4.96-.33-6.47-1.36-2.44-6.13,3.33-13.8,1.94-19.03-1.07-3.99-6.28-2.5-5.18-6.8.25-4.04,5.55-2.78,7.12-5.43,3.16-14.07-3.65-20.57-1.29-30.58,3.85-16.36,42.34-6.22,52.41-1.36,8.61,4.15,13.62,14.12,3.88,20.38-10.72,6.9-27.47,9.17-39.48,14.27ZM343.43,67.46c-3.23.19-9.93.87-8.41,6.79,3.2.62,9.91-3.7,11,2.72-2.37,4.99-3.55,11.22-5.18,16.99,12.83-3.75,25.91-7.22,34.3-15.63-4-6.4-21.12-11.49-31.71-10.87Z"/>
        <path class="cls-3" d="M645.32,99.39c9.2,10.1,25.6,16.55,39.49,23.1,3.67,1.73,11.19,4.2,8.42,10.87-19.97-2.6-36.86-14.31-55.02-21.06-1.91,5.7-3.39,11.84-5.83,16.99-1.33.89-4.96-.33-6.47-1.36-2.36-5.9,3.02-13.01,1.94-18.35-.87-4.31-5.43-3.49-5.18-7.48.25-4.04,5.55-2.78,7.12-5.43,3.15-14.07-3.66-20.57-1.3-30.58,3.85-16.34,42.36-6.25,52.43-1.36,8.59,4.17,13.64,14.11,3.88,20.38-10.72,6.9-27.49,9.17-39.49,14.27ZM644.67,67.46c-3.24.19-9.93.87-8.42,6.79,3.2.62,9.91-3.7,11.01,2.72-2.37,4.99-3.55,11.22-5.18,16.99,12.83-3.75,25.92-7.22,34.31-15.63-4-6.4-21.13-11.49-31.72-10.87Z"/>
        <path class="cls-3" d="M721.8,58.57c-3.05,23.41-15.21,43.63-11,70.33-3.16,1.4-6.53,5.02-11,2.81-8.12-12.17,5.58-36.76-1.94-47.82,2.76-13.66,7.75-28.59,23.94-25.32Z"/>
        <path class="cls-3" d="M580.67,96.03s-9.44,6.27-1.76,10.17c7.93-1.07,16.88-1.72,25.49-1.04-4.36,15.1-35.67,29.21-44.92,8.31-3.78-22.1,15.6-48.72,31.06-48.38,11.1.24,11.6,10.57,16.82,18.33,4.59,1.29,9.85-3.01,12.3-6.6-4.55-12.27-11.33-19.67-23.94-19.8-25.67-.25-55.27,31.05-51.12,60.11.44,3.12,2.06,9.49,5.18,11,30.27,14.65,62.88-3.58,65.9-22.02,1.29-2.05,1.86-5,1.86-8.68-10.27-6.31-27.32-.74-36.87-1.42Z"/>
      </g>
      <g>
        <g>
          <path class="cls-4" d="M82.6,185.62c-.07,0-.15,0-.22-.01-38.28-3.71-49.12-31.81-49.98-34.22l-.93-2.01c-4.54-9.78-8.83-19.02-7.34-28.34,6.06-38.04,33.24-58.52,62.01-80.2,3.69-2.78,7.51-5.66,11.23-8.54,13.47-10.43,24.21-28.7,24.32-28.88.42-.72,1.18-1.13,1.97-1.13.23,0,.47.04.7.11,1.02.33,1.68,1.32,1.57,2.39-3.42,35.89-.06,46.22,2.65,54.52.6,1.83,1.16,3.55,1.64,5.46,1.25,4.96,5.54,17.22,9.68,29.08,4.86,13.89,9.45,27,10.3,31.43,1.65,8.53-1.1,19.8-1.22,20.28-.43,1.49-10.33,34.36-38.53,36.75-1.18.1-2.36.15-3.49.15h0c-25.65,0-28.68-25.51-28.71-25.77-2.51-20.77,6.4-39.54,25.76-54.25,3.54-2.69,7.11-5,10.49-6.97-25.18,9.29-34.71,29.35-38.28,42.04-.34,1.22-.77,2.74-2.55,2.74-.7,0-1.37-.33-1.81-.88h0c-9.77-12.42-20.82-18.99-31.96-18.99-2.13,0-4.05.24-5.71.59,36,10.46,38.82,35.28,38.92,36.39,0,.04,0,.08,0,.12.65,14.56,10.9,24.06,11.01,24.15.73.66.95,1.72.55,2.62-.37.83-1.19,1.36-2.08,1.36Z"/>
          <path class="cls-1" d="M123.67,4.57h0M123.67,4.57c-4.19,43.91,1.68,50.12,4.35,60.76s18.39,52.26,19.96,60.39c1.57,8.14-1.19,19.3-1.19,19.3,0,0-9.55,32.74-36.51,35.03-1.14.1-2.24.14-3.3.14-23.89,0-26.44-23.73-26.44-23.73-5.89-48.8,54.15-67.77,54.15-67.77-53.39,5.24-60.47,49.29-61.01,49.29,0,0,0,0-.01,0-12.6-16.01-24.87-19.86-33.76-19.86-8.21,0-13.52,3.28-13.52,3.28,6.71-42.11,40.78-62.81,72.39-87.29,14-10.84,24.89-29.54,24.89-29.54M26.38,121.39h0M26.38,121.39c41.81,8.77,44.46,36.2,44.46,36.2.71,15.75,11.75,25.74,11.75,25.74-38.76-3.75-48.08-32.81-48.08-32.81-4.71-10.21-9.62-19.86-8.14-29.14M123.67,0c-.16,0-.33,0-.49.03-.79.08-1.52.37-2.14.81-.38.27-.72.6-1.01.98-.12.16-.23.33-.33.51-.66,1.12-10.97,18.3-23.71,28.17-3.71,2.87-7.52,5.74-11.21,8.52-27.85,20.98-56.65,42.68-62.88,81.58,0,.05-.02.11-.03.16-1.56,9.98,3.07,19.94,7.54,29.58.29.63.59,1.26.88,1.9.56,1.59,3.38,8.83,10.4,16.4,7.08,7.64,20.03,17.18,41.48,19.25.15.01.3.02.44.02,1.79,0,3.44-1.06,4.18-2.72.8-1.8.35-3.91-1.11-5.23-.08-.08-9.65-9.01-10.26-22.56,0-.08,0-.16-.02-.23-.03-.33-.86-8.22-7.43-17.09-3.73-5.04-9.88-11.1-19.82-16.09,7.61,2.4,15.07,8.1,21.93,16.81.86,1.1,2.19,1.75,3.6,1.75,1.03,0,1.83-.28,2.47-.7-.72,4.9-.77,9.96-.14,15.14.08.69.92,7.2,4.9,13.71,3.91,6.41,11.62,14.05,26.08,14.05,1.2,0,2.43-.05,3.68-.16,29.74-2.52,40.08-36.84,40.51-38.3.02-.06.03-.12.05-.18.12-.5,2.98-12.24,1.24-21.26-.89-4.59-5.5-17.78-10.39-31.75-4.13-11.81-8.4-24.02-9.62-28.89-.5-1.98-1.07-3.75-1.68-5.61-2.64-8.09-5.92-18.15-2.56-53.44.03-.2.04-.39.04-.6,0-2.42-1.89-4.41-4.27-4.56-.1,0-.2,0-.3,0h0ZM123.67,9.13h0,0ZM26.39,125.96h0,0ZM26.39,125.96h0,0Z"/>
        </g>
        <g>
          <path class="cls-5" d="M103.94,148.22c-14.16,0-23.58-2.18-23.98-2.27-1.14-.27-1.9-1.36-1.74-2.53,2.85-21.22,16.63-35.41,29.79-44.31-8.07,4.33-15.03,10.23-20.82,17.68-8.61,11.07-11.28,21.62-11.31,21.72-.25,1.02-1.17,1.74-2.22,1.74-.03,0-.06,0-.09,0-1.08-.04-1.99-.84-2.16-1.92-5.5-33.94,20.62-58.05,21.73-59.06,9.42-8,22.74-12.03,39.63-12.03,18.5,0,34.47,4.86,35.14,5.06,1.06.33,1.73,1.36,1.59,2.46-3.63,29.72-11.56,49.75-24.24,61.24-11.71,10.61-25.43,11.48-32.8,11.94-2.82.18-5.69.27-8.53.27Z"/>
          <path class="cls-1" d="M132.78,69.53c18.37,0,34.47,4.96,34.47,4.96-8.04,65.8-36.34,70.01-54.92,71.18-2.94.19-5.74.26-8.39.26-14.06,0-23.45-2.21-23.45-2.21,5.49-40.88,54.2-55.04,54.2-55.04-50.44,5.93-61.02,49.29-61.02,49.29-5.36-33.1,21.01-57.01,21.01-57.01,10.44-8.86,24.86-11.44,38.1-11.44M132.78,64.96c-17.45,0-31.27,4.21-41.06,12.52-.04.03-.07.06-.11.1-1.15,1.04-28.14,25.97-22.45,61.12.35,2.14,2.16,3.75,4.33,3.83.06,0,.12,0,.18,0,.91,0,1.77-.27,2.49-.74-.07.44-.13.88-.19,1.32-.31,2.33,1.19,4.51,3.48,5.05.4.1,10.08,2.33,24.5,2.33,2.89,0,5.81-.09,8.67-.27,7.65-.48,21.89-1.38,34.19-12.53,13.1-11.87,21.27-32.37,24.97-62.66.27-2.2-1.07-4.27-3.19-4.92-.68-.21-16.97-5.16-35.81-5.16h0Z"/>
        </g>
        <g>
          <path class="cls-2" d="M52.02,158.01c-5.73,0-11.99-1.85-18.6-5.49-16.77-9.23-30.38-40.29-30.95-41.61-.25-.59-.25-1.26.01-1.84s.76-1.03,1.37-1.23c.63-.21,15.81-5.14,44.22-5.14.91,0,1.82,0,2.76.02,9.07.1,15.92,2.99,20.36,8.58,8.3,10.48,4.86,26.48,4.71,27.16-.19.85-.84,1.51-1.68,1.72-.18.04-.37.07-.55.07-.66,0-1.3-.29-1.74-.81-15.4-18.15-27.76-18.39-33.7-18.51-.35,0-1.28-.03-1.42-.03-.38,0-.76.01-1.13.04,24.51,6.74,33.39,24.72,34.41,26.96.23.5.27,1.08.11,1.61-.2.67-.81,2.7-9.52,6.66-.71.4-3.64,1.83-8.65,1.83Z"/>
          <path class="cls-1" d="M48.07,104.99c.9,0,1.81,0,2.73.02,30.13.34,22.87,32.96,22.87,32.96-16.97-20-30.66-19.16-36.37-19.34-.16,0-.33,0-.49,0-5.52,0-10.42,2.77-10.42,2.77,27.88,3.79,39.28,22.33,41.62,27.47-.52,1.72-8.38,5.29-8.38,5.29,0,0-2.61,1.58-7.61,1.58-4.19,0-10.07-1.11-17.49-5.2-16.28-8.96-29.96-40.51-29.96-40.51,0,0,15.13-5.02,43.5-5.02M48.07,100.43h0c-28.78,0-44.3,5.04-44.94,5.25-1.22.4-2.21,1.3-2.73,2.47-.52,1.17-.53,2.51-.02,3.68.58,1.35,14.5,33.09,31.94,42.7,6.95,3.83,13.58,5.77,19.7,5.77,5.32,0,8.59-1.48,9.68-2.07,9.58-4.37,10.3-6.76,10.69-8.05.32-1.06.24-2.2-.22-3.21-.71-1.55-5-10.28-15.16-18.06,4.01,2.61,8.44,6.42,13.18,12.01.88,1.04,2.16,1.61,3.48,1.61.36,0,.73-.04,1.1-.13,1.68-.42,2.99-1.75,3.36-3.44.16-.72,3.82-17.76-5.15-29.07-4.88-6.16-12.33-9.34-22.12-9.45-.94-.01-1.87-.02-2.78-.02h0Z"/>
        </g>
      </g>
      <g>
        <path class="cls-2" d="M199.13,161.27h-2.92v-13.37h2.92v13.37Z"/>
        <path class="cls-2" d="M210.09,147.9h3.09s5.59,9.33,5.59,9.33v-9.33h2.75v13.37h-2.95s-5.73-9.49-5.73-9.49v9.49h-2.75v-13.37Z"/>
        <path class="cls-2" d="M232.49,147.9h3.08s5.59,9.33,5.59,9.33v-9.33h2.75v13.37h-2.95s-5.73-9.49-5.73-9.49v9.49h-2.74v-13.37Z"/>
        <path class="cls-2" d="M265.78,160.08c-1.06,1.04-2.6,1.56-4.62,1.56-2.01,0-3.55-.52-4.61-1.56-1.43-1.28-2.14-3.12-2.14-5.52,0-2.45.71-4.29,2.14-5.52,1.06-1.04,2.6-1.56,4.61-1.56,2.01,0,3.55.52,4.62,1.56,1.42,1.23,2.13,3.07,2.13,5.52,0,2.4-.71,4.24-2.13,5.52ZM263.93,158.05c.69-.82,1.03-1.98,1.03-3.49,0-1.5-.34-2.66-1.03-3.48-.68-.82-1.61-1.23-2.78-1.23-1.16,0-2.1.41-2.79,1.22-.69.82-1.04,1.98-1.04,3.48,0,1.51.35,2.67,1.04,3.49.69.82,1.63,1.22,2.79,1.22,1.17,0,2.09-.41,2.78-1.22Z"/>
        <path class="cls-2" d="M286.65,147.9h3.06s-4.8,13.37-4.8,13.37h-2.78s-4.76-13.37-4.76-13.37h3.14s3.06,10.15,3.06,10.15l3.09-10.15Z"/>
        <path class="cls-2" d="M303.03,147.9h3.33s4.98,13.37,4.98,13.37h-3.19s-.93-2.75-.93-2.75h-5.19s-.96,2.75-.96,2.75h-3.08s5.03-13.37,5.03-13.37ZM302.84,156.22h3.61s-1.78-5.26-1.78-5.26l-1.83,5.26Z"/>
        <path class="cls-2" d="M322.03,149.3c1.13-1.1,2.58-1.65,4.33-1.65,2.34,0,4.06.74,5.14,2.22.6.83.92,1.66.96,2.5h-2.94c-.19-.64-.43-1.12-.72-1.45-.52-.58-1.3-.87-2.33-.87-1.05,0-1.87.41-2.48,1.23-.6.82-.91,1.98-.91,3.48,0,1.5.32,2.62.96,3.37.64.75,1.45,1.12,2.43,1.12,1.01,0,1.78-.32,2.31-.96.29-.35.53-.86.73-1.55h2.92c-.25,1.46-.9,2.64-1.93,3.55-1.04.91-2.37,1.37-3.99,1.37-2,0-3.58-.62-4.73-1.85-1.15-1.24-1.72-2.94-1.72-5.1,0-2.34.65-4.14,1.96-5.4Z"/>
        <path class="cls-2" d="M345.76,161.27h-2.92v-13.37h2.92v13.37Z"/>
        <path class="cls-2" d="M367.62,160.08c-1.06,1.04-2.6,1.56-4.62,1.56-2.01,0-3.55-.52-4.62-1.56-1.42-1.28-2.14-3.12-2.14-5.52,0-2.45.72-4.29,2.14-5.52,1.06-1.04,2.6-1.56,4.62-1.56,2.01,0,3.55.52,4.62,1.56,1.42,1.23,2.13,3.07,2.13,5.52,0,2.4-.71,4.24-2.13,5.52ZM365.78,158.05c.69-.82,1.03-1.98,1.03-3.49,0-1.5-.34-2.66-1.03-3.48-.68-.82-1.61-1.23-2.78-1.23-1.17,0-2.09.41-2.79,1.22-.69.82-1.04,1.98-1.04,3.48,0,1.51.35,2.67,1.04,3.49.7.82,1.62,1.22,2.79,1.22,1.17,0,2.09-.41,2.78-1.22ZM366.26,143.7l-2.9,2.71h-1.97s1.83-2.71,1.83-2.71h3.04Z"/>
        <path class="cls-2" d="M380.21,147.9h3.08s5.59,9.33,5.59,9.33v-9.33h2.74v13.37h-2.94s-5.74-9.49-5.74-9.49v9.49h-2.74v-13.37Z"/>
        <path class="cls-2" d="M426.76,150.26h-7.46s0,2.84,0,2.84h6.85v2.32h-6.85s0,3.44,0,3.44h7.8v2.4h-10.68v-13.37h10.33v2.37Z"/>
        <path class="cls-2" d="M437.61,147.9h3.09s5.59,9.33,5.59,9.33v-9.33h2.74v13.37h-2.94s-5.74-9.49-5.74-9.49v9.49h-2.74v-13.37Z"/>
        <path class="cls-2" d="M473.74,147.91h10.04v2.35h-7.12s0,3.08,0,3.08h6.24v2.32h-6.24s0,5.61,0,5.61h-2.93v-13.36Z"/>
        <path class="cls-2" d="M504.37,150.26h-7.46s0,2.84,0,2.84h6.85v2.32h-6.85s0,3.44,0,3.44h7.8v2.4h-10.68v-13.37h10.33v2.37Z"/>
        <path class="cls-2" d="M524.3,148.24c.52.21.96.52,1.32.94.3.34.53.71.71,1.12.17.41.26.88.26,1.41,0,.64-.17,1.26-.5,1.87-.34.61-.9,1.05-1.68,1.3.65.25,1.11.6,1.38,1.05.27.46.4,1.15.4,2.09v.9c0,.61.03,1.03.08,1.24.08.35.26.6.54.77v.33h-3.25c-.09-.3-.15-.54-.19-.72-.08-.37-.12-.76-.13-1.15l-.02-1.24c0-.85-.17-1.42-.46-1.71-.3-.29-.86-.43-1.68-.43h-2.87s0,5.24,0,5.24h-2.88v-13.37h6.74c.96.02,1.7.13,2.22.34ZM518.21,150.22v3.59s3.17,0,3.17,0c.63,0,1.1-.07,1.42-.22.56-.25.83-.75.83-1.51,0-.81-.27-1.35-.81-1.63-.3-.15-.76-.23-1.36-.23h-3.25Z"/>
        <path class="cls-2" d="M547.9,147.9v2.37h-4.21s0,11.01,0,11.01h-2.96v-11.01s-4.23,0-4.23,0v-2.37h11.41Z"/>
        <path class="cls-2" d="M560.56,161.27h-2.92v-13.37h2.92v13.37Z"/>
        <path class="cls-2" d="M571.57,147.9h2.95v10.97s7.04,0,7.04,0v2.4h-9.98v-13.37Z"/>
        <path class="cls-2" d="M594.13,161.27h-2.92v-13.37h2.92v13.37Z"/>
        <path class="cls-2" d="M604.14,158.91l7.2-8.65h-7.02v-2.37h10.68v2.24s-7.29,8.77-7.29,8.77h7.31v2.36h-10.88v-2.36Z"/>
        <path class="cls-2" d="M628.66,147.9h3.33s4.99,13.37,4.99,13.37h-3.19s-.93-2.75-.93-2.75h-5.19s-.96,2.75-.96,2.75h-3.08s5.03-13.37,5.03-13.37ZM628.47,156.22h3.61s-1.78-5.26-1.78-5.26l-1.83,5.26Z"/>
        <path class="cls-2" d="M646.27,147.9h3.09s5.59,9.33,5.59,9.33v-9.33h2.75v13.37h-2.95s-5.74-9.49-5.74-9.49v9.49h-2.74v-13.37Z"/>
        <path class="cls-2" d="M678.96,147.9v2.37h-4.22s0,11.01,0,11.01h-2.96v-11.01s-4.24,0-4.24,0v-2.37h11.42Z"/>
        <path class="cls-2" d="M699.36,150.26h-7.46s0,2.84,0,2.84h6.85v2.32h-6.85s0,3.44,0,3.44h7.8v2.4h-10.68v-13.37h10.33v2.37Z"/>
        <path class="cls-2" d="M712.38,157.14c.09.61.27,1.07.54,1.37.49.55,1.32.82,2.51.82.71,0,1.29-.07,1.73-.22.84-.28,1.26-.79,1.26-1.55,0-.44-.21-.78-.62-1.02-.41-.23-1.06-.45-1.95-.63l-1.53-.32c-1.5-.32-2.53-.65-3.09-1.02-.95-.62-1.42-1.58-1.42-2.9,0-1.19.47-2.19,1.4-2.98.93-.79,2.29-1.19,4.09-1.19,1.5,0,2.78.37,3.84,1.12,1.06.75,1.62,1.83,1.67,3.25h-2.83c-.05-.8-.43-1.38-1.14-1.71-.47-.22-1.06-.34-1.76-.34-.78,0-1.4.15-1.86.44-.47.29-.7.7-.7,1.22,0,.48.23.83.68,1.07.29.16.92.34,1.87.55l2.47.55c1.08.24,1.9.56,2.44.97.84.63,1.26,1.54,1.26,2.73,0,1.23-.5,2.24-1.49,3.05-.99.8-2.4,1.21-4.22,1.21-1.85,0-3.31-.4-4.37-1.19-1.07-.8-1.59-1.89-1.59-3.28h2.81Z"/>
      </g>
    </g>
  </g>
</svg>