<?xml version="1.0" encoding="UTF-8"?>
<svg id="Layer_2" data-name="Layer 2" xmlns="http://www.w3.org/2000/svg" viewBox="0 0 101.58 133.59">
  <g id="Layer_1-2" data-name="Layer 1">
    <g>
      <g>
        <path d="M53.66,62.94l10.11-.14,9.69,16.28h.31c-.45-2.47-.95-5.02-.98-7.53l-.13-8.88,10.08-.14.42,29.61-10.08.14-9.48-15.42h-.31c.38,2.05.7,3.97.73,5.92l.14,9.63-10.08.14s-.42-29.61-.42-29.61Z"/>
        <path d="M49.44,79h-4.19l.02,4.2h-3.09l-.02-4.16h-4.16l-.02-2.97h4.16l-.03-4.2h3.09l.03,4.16h4.19l.02,2.97Z"/>
        <g>
          <path d="M28.8,78.82q-1.06,0-1.06,1.02c0,1.95.02,3.89,0,5.84,0,.61.2.83.83.83,4-.02,8.02-.02,12.02,0,.52,0,.83-.19,1.14-.58.72-.94,1.72-1.31,2.88-1.06s1.91.97,2.23,2.11c.36,1.3-.27,2.63-1.55,3.27-1.2.59-2.72.31-3.52-.77-.38-.52-.8-.64-1.39-.64-3.89.02-7.77,0-11.66,0-.95,0-.97,0-.97.95v5.77c0,.92.03.94.98.94h7.81c.5,0,.84-.13,1.16-.53.97-1.27,3-1.42,4.2-.39,1.27,1.08,1.33,3,.14,4.19s-3.11,1.2-4.17-.08c-.52-.63-1.06-.77-1.8-.75-2.48.03-4.97.03-7.45,0-.7,0-.91.23-.89.91.03,1.92,0,3.84.02,5.77,0,.34-.2.88.34.94.53.08,1.16.25,1.58-.34.34-.5.8-.88,1.41-1.08,1.45-.48,2.97.13,3.66,1.5.63,1.25.14,2.88-1.09,3.63-1.3.8-3,.55-3.88-.69-.47-.67-1.06-.55-1.67-.48-.45.05-.34.45-.34.73v7.41c0,.47-.09.78-.67.77-.64,0-.66-.42-.66-.88v-33.75h0v-33.47c0-.63-.08-1.08-.75-1.42-.97-.5-.84-1.78.14-2.39.22-.13.53-.16.58-.48.03-.3.14-.66-.08-.89-.25-.3-.59-.06-.88.03-1.97.69-2.44,3.39-.81,4.72.48.39.66.8.64,1.39-.03,1.5,0,2.98,0,4.48,0,.95-.03.97-.95.98h-7.89c-.5,0-.83-.13-1.14-.55-.72-.95-1.73-1.34-2.94-1.09-1.22.27-2,1.19-2.2,2.45-.16.97.45,2.16,1.39,2.7,1.13.67,2.7.42,3.61-.64.41-.48.83-.63,1.42-.63,2.61.02,5.22.03,7.81,0,.7,0,.92.22.91.91-.03,2-.03,3.98,0,5.98,0,.66-.23.86-.89.86-4.03-.02-8.06-.02-12.09,0-.56,0-.88-.22-1.2-.63-.78-.95-1.84-1.19-3-.88-1.06.3-1.73,1.05-1.92,2.11-.22,1.17.16,2.16,1.17,2.88,1.14.81,2.81.61,3.77-.55.39-.47.78-.59,1.36-.59,3.94.02,7.88,0,11.8,0,.98,0,1,0,1,1,0,1.97-.02,3.94,0,5.91,0,.63-.22.83-.84.83-4.47-.02-8.92-.02-13.39,0-.53,0-.83-.22-1.14-.61-1.11-1.36-2.95-1.44-4.19-.23-1.2,1.17-1.16,3,.09,4.11,1.23,1.08,3.22.86,4.2-.5.3-.41.64-.52,1.11-.5,3.55.06,7.09-.09,10.64.09.94.05,1.88-.03,2.81-.08.5-.03.7.16.7.64v6.48c0,.48-.17.69-.67.69h-12.53c-.44,0-.63-.27-.84-.56-.83-1.08-2.19-1.41-3.44-.89-1.2.5-1.83,1.7-1.64,3.09.16,1.14,1.19,2.13,2.47,2.27,1.09.13,2-.3,2.64-1.16.28-.38.58-.52,1.02-.5,4.05,0,8.11.02,12.16,0,.63,0,.84.2.84.83-.03,2.06-.03,4.13,0,6.19,0,.63-.22.83-.84.83-2.73-.02-5.45,0-8.19,0-.42,0-.7-.13-.97-.48-.86-1.17-2.22-1.52-3.53-.94-1.08.47-1.83,1.77-1.64,2.84.23,1.44,1.28,2.44,2.72,2.52.97.05,1.8-.34,2.38-1.13.28-.39.59-.55,1.08-.55,2.7.02,5.41.03,8.11,0,.66,0,.89.2.88.86-.03,2,0,3.98-.02,5.98,0,.34.2.88-.34.95-.58.08-1.22.28-1.69-.41-.81-1.2-2.3-1.58-3.58-.97-1.11.53-1.73,1.58-1.63,2.78.09,1.06.94,2.11,1.97,2.41,1.16.34,2.41-.03,3.13-.95.23-.3.42-.53.86-.55,1.28-.03,1.3-.05,1.3,1.22v6.19c0,.77-.08.81-.75.39-2.55-1.64-4.94-3.48-7.14-5.55-5.66-5.33-9.7-11.64-12.2-18.94-1.92-5.59-2.67-11.36-2.36-17.25.34-6.48,2-12.64,5-18.44,2.7-5.23,6.25-9.84,10.73-13.75,2.25-1.95,4.64-3.72,7.2-5.23.72-.42.78-.38.78.45v5.55c0,.52.11.8.69.95,2.27.63,2.92,3.27,1.19,4.83-.56.52-.73,1.03-.72,1.73.05,1.41.03,2.8,0,4.2,0,.59.19.84.83.84,2.7-.03,5.41,0,8.11,0,.42,0,.7-.11.97-.47,1.06-1.39,3.06-1.58,4.34-.42,1.23,1.13,1.25,3.03,0,4.19-1.25,1.19-3.17,1.08-4.27-.3-.34-.42-.7-.58-1.22-.58-2.63.02-5.27.03-7.89,0-.67,0-.89.22-.88.86.03,2,.03,3.98,0,5.98,0,.67.27.84.89.84,3.94-.02,7.88-.02,11.8,0,.58,0,.97-.16,1.36-.61,1.03-1.22,2.56-1.39,3.91-.53,1.16.73,1.55,2.27.94,3.61-.83,1.84-3.5,2.19-4.83.58-.38-.47-.77-.63-1.34-.63-3.91.02-7.81,0-11.74,0-.95,0-.98.03-.98.95,0,1.97.02,3.94,0,5.91,0,.63.23.81.84.81M42.68,87.55c0,.78.56,1.36,1.33,1.38.72,0,1.38-.63,1.39-1.34,0-.72-.64-1.38-1.36-1.38-.77,0-1.36.58-1.36,1.34ZM44.05,68.75c.75,0,1.34-.63,1.34-1.39s-.64-1.31-1.42-1.3c-.75.03-1.3.59-1.3,1.34s.61,1.36,1.38,1.34ZM39.96,98.96c.77.03,1.38-.53,1.39-1.3,0-.73-.53-1.31-1.27-1.36-.73-.05-1.39.53-1.44,1.28-.05.73.53,1.34,1.31,1.38ZM32.03,109.05c.81,0,1.41-.53,1.42-1.28,0-.73-.63-1.38-1.36-1.38s-1.41.67-1.39,1.34c0,.72.61,1.3,1.33,1.31ZM41.35,57.33c0-.73-.58-1.34-1.28-1.36-.73-.02-1.41.59-1.44,1.31-.03.75.56,1.36,1.34,1.38.78,0,1.38-.56,1.38-1.33ZM26.58,47.27v.64c0,.2-.03.45.2.56.27.13.45-.06.63-.22.59-.55.63-1.31.06-1.88-.19-.19-.38-.41-.67-.28-.27.11-.2.39-.22.63v.56-.02Z"/>
          <path d="M13.02,55.99c.84,0,1.45.59,1.44,1.44,0,.73-.7,1.39-1.45,1.39s-1.42-.69-1.42-1.44.63-1.39,1.42-1.39h.02Z"/>
          <path d="M14.47,97.66c0,.8-.61,1.44-1.38,1.47-.78.02-1.5-.66-1.52-1.42,0-.75.64-1.38,1.44-1.41.8-.02,1.44.58,1.45,1.36Z"/>
          <path d="M20.97,106.33c.73,0,1.42.67,1.44,1.41.02.77-.66,1.44-1.47,1.45-.73,0-1.42-.66-1.44-1.41-.02-.78.67-1.45,1.45-1.45h.02Z"/>
          <path d="M10.44,87.61c0,.8-.61,1.42-1.41,1.42s-1.47-.69-1.45-1.47c0-.7.69-1.36,1.41-1.38.83,0,1.47.61,1.47,1.44l-.02-.02Z"/>
          <path d="M10.42,67.47c-.03.84-.66,1.39-1.52,1.36-.77-.05-1.36-.66-1.34-1.39,0-.78.72-1.45,1.5-1.42.77.03,1.39.7,1.36,1.45Z"/>
          <path d="M7.78,76.11c.77,0,1.41.63,1.42,1.41,0,.75-.66,1.39-1.44,1.41-.78,0-1.39-.56-1.41-1.33-.03-.8.63-1.48,1.42-1.48Z"/>
        </g>
        <path d="M69.16,38.58c-.47-1.03-.97-2.05-1.42-3.08-1.19-2.7-2-5.52-2.31-8.47-.56-5.41.84-10.28,4.05-14.69,2.86-3.94,6.58-6.95,10.69-9.55,1.39-.88,2.84-1.66,4.27-2.48.19-.11.39-.17.7-.31-1.94,3.19-1.25,6.25.05,9.25.72,1.69,1.73,3.27,2.48,4.95,2.31,5.13,1.66,10.03-1.3,14.72-2.34,3.73-5.53,6.69-9,9.39-.56.44-1.13.84-1.77,1.31-3.09-7.55-3.77-15.11-1.36-22.88-3.61,7.91-3.83,15.88-.28,23.83l-4.81-2h.02Z"/>
        <path d="M70.05,38.6c-.66-.27-1.33-.55-1.98-.8-1.75-.67-3.55-1.11-5.44-1.23-3.45-.22-6.53.77-9.25,2.83-2.44,1.84-4.27,4.2-5.83,6.8-.53.88-1,1.78-1.48,2.67-.06.11-.09.23-.19.44,1.98-1.27,3.94-.91,5.88-.19,1.09.41,2.13.98,3.2,1.42,3.31,1.31,6.42.78,9.33-1.13,2.33-1.53,4.13-3.56,5.77-5.75.27-.34.52-.72.8-1.11-4.86-1.72-9.7-1.97-14.58-.31,4.94-2.41,10.02-2.72,15.14-.72l-1.39-2.92h.03Z"/>
        <path d="M71.41,41.6c19.97,12.99,24.94,40.74,11.74,60.38-13.22,19.64-40.11,25.03-60.1,12.05C5.52,102.62-.86,80.83,6.8,62.39c-4.09,7.89-5.89,16.44-5.56,24.86,1,15.61,9.48,30.5,24.13,39.21,23.74,14.11,54.6,6.64,68.96-16.69,14.36-23.33,6.75-53.69-16.97-67.8l-7.42-3.34,1.5,2.98-.02-.02Z"/>
      </g>
      <rect x="27.13" y="76.16" width="14.05" height="2.86"/>
      <path d="M26.33,37.36S-13.41,57.58,4.75,102.49c3.28-13.52-13.88-38.83,21.58-65.13Z"/>
    </g>
  </g>
</svg>